<svg width="32" height="32" viewBox="0 0 32 32" fill="none" xmlns="http://www.w3.org/2000/svg">
<mask id="mask0_402_137" style="mask-type:luminance" maskUnits="userSpaceOnUse" x="0" y="-1" width="32" height="33">
<path d="M0 -0.00012207H32V31.9999H0V-0.00012207Z" fill="white"/>
</mask>
<g mask="url(#mask0_402_137)">
<path d="M5.40024 3.56358L4.92624 9.65796H27.0737L26.5997 3.56358C26.4433 1.55227 24.7656 -4.00543e-05 22.7482 -4.00543e-05H9.2518C7.23443 -4.00543e-05 5.55668 1.55227 5.40024 3.56358Z" fill="#92DD7A"/>
<path d="M16 7.72633C15.2888 7.72633 14.7122 7.14977 14.7122 6.43858C14.7122 5.72746 15.2888 5.1509 16 5.1509V-4.00543e-05H9.2518C7.23436 -4.00543e-05 5.55668 1.55227 5.40024 3.56359L4.92624 9.65796H16V7.72633Z" fill="#7EC66A"/>
<path d="M25.739 26.8186L27.0737 9.65799H4.92624L6.26099 26.8186L16 29.4093L25.739 26.8186Z" fill="#92DD7A"/>
<path d="M26.7232 14.1649L27.0737 9.65787H4.92624L6.26093 26.8184L9.88168 27.7816L8.82255 14.1649H26.7232Z" fill="#7EC66A"/>
<path d="M26.9456 11.5895H5.05424C3.98749 11.5895 3.12268 10.7247 3.12268 9.65792C3.12268 8.5911 3.98749 7.72629 5.05424 7.72629H26.9456C28.0124 7.72629 28.8772 8.5911 28.8772 9.65792C28.8772 10.7247 28.0124 11.5895 26.9456 11.5895Z" fill="#B1EF97"/>
<path d="M11.8231 9.65792C11.8231 8.5911 12.6879 7.72629 13.7547 7.72629H5.05433C3.98758 7.72629 3.12277 8.5911 3.12277 9.65792C3.12277 10.7247 3.98758 11.5895 5.05433 11.5895H13.7547C12.6879 11.5895 11.8231 10.7247 11.8231 9.65792Z" fill="#92DD7A"/>
<path d="M21.8714 3.36907L22.1334 -5.81741e-05H9L9.262 3.36907C9.34025 4.37469 10.1791 5.15088 11.1878 5.15088H19.9456C20.9543 5.15088 21.7931 4.37469 21.8714 3.36907Z" fill="#67B758"/>
<path d="M6.26099 26.8184L6.3868 28.4363C6.54324 30.4476 8.22099 31.9999 10.2384 31.9999H21.7617C23.779 31.9999 25.4567 30.4476 25.6132 28.4363L25.739 26.8184H6.26099Z" fill="#7EC66A"/>
<path d="M6.3868 28.4363C6.54324 30.4476 8.22099 31.9999 10.2384 31.9999H13.7842C11.7668 31.9999 10.089 30.4476 9.93261 28.4363L9.8068 26.8184H6.26099L6.3868 28.4363Z" fill="#67B758"/>
</g>
<g clip-path="url(#clip0_402_137)">
<path d="M18.169 19.017L15.1467 22.0391" stroke="white" stroke-width="0.6" stroke-miterlimit="10" stroke-linejoin="round"/>
<path d="M14.9625 21.0787L16.1072 22.2233" stroke="white" stroke-width="0.6" stroke-miterlimit="10" stroke-linejoin="round"/>
<path d="M15.389 20.0477L17.1382 21.7968" stroke="white" stroke-width="0.6" stroke-miterlimit="10" stroke-linejoin="round"/>
<path d="M15.8799 19.0812L18.1048 21.306" stroke="white" stroke-width="0.6" stroke-miterlimit="10" stroke-linejoin="round"/>
<path d="M16.4479 18.1915L18.9943 20.738" stroke="white" stroke-width="0.6" stroke-miterlimit="10" stroke-linejoin="round"/>
<path d="M19.975 17.1564C19.8355 17.0925 19.0656 16.818 17.4362 17.6149C17.4362 17.6149 17.4174 18.1695 18.1264 18.9696L18.1244 18.9715C18.1306 18.9773 18.1368 18.9829 18.143 18.9881C18.1492 18.9933 18.1539 19.0007 18.1596 19.0069L18.1616 19.0047C18.9616 19.7146 19.5164 19.6949 19.5164 19.6949C20.3134 18.0658 20.0387 17.2959 19.975 17.1564Z" stroke="white" stroke-width="0.6" stroke-miterlimit="10" stroke-linejoin="round"/>
<path d="M15.1568 22.0291C15.0104 22.0464 13.7797 22.1828 13.1757 21.9652C13.1757 21.9652 13.171 23.0271 14.0659 23.12C14.1588 24.0149 15.2206 24.0102 15.2206 24.0102C15.0031 23.4062 15.1395 22.1755 15.1568 22.0291Z" stroke="white" stroke-width="0.6" stroke-miterlimit="10" stroke-linejoin="round"/>
<path d="M18.6639 17.9556C18.7808 17.9556 18.8755 17.8609 18.8755 17.744C18.8755 17.6271 18.7808 17.5323 18.6639 17.5323C18.547 17.5323 18.4522 17.6271 18.4522 17.744C18.4522 17.8609 18.547 17.9556 18.6639 17.9556Z" fill="white"/>
</g>
<defs>
<clipPath id="clip0_402_137">
<rect width="9.02523" height="8.17024" fill="white" transform="translate(11.5745 16.3405)"/>
</clipPath>
</defs>
</svg>
